<svg width="238" height="261" viewBox="0 0 238 261" fill="none" xmlns="http://www.w3.org/2000/svg">
<path d="M88.0145 6.2823L216.28 50.2205C234.483 56.4559 232.486 70.5704 230.217 77.1927" stroke="#FF7A00" stroke-width="10"/>
<path d="M230.217 77.1927L189.666 195.57C184.008 212.088 169.913 211.873 163.573 209.702L83.2666 182.192C78.5327 180.57 74.1916 183.868 72.6128 185.72L38.8567 216.708L51.9021 178.625C53.6625 173.486 49.5941 170.657 47.3399 169.885" stroke="#FF7A00" stroke-width="10"/>
<path d="M88.0756 6.30324C73.3551 1.26065 65.3997 12.4807 63.262 18.7211L22.7505 136.983C17.1195 153.421 28.1598 162.135 34.3839 164.437L47.6494 168.982" stroke="#FF7A00" stroke-width="10"/>
<line x1="113.326" y1="90.0137" x2="137.06" y2="90.0137" stroke="#FF7A00" stroke-width="3"/>
<line x1="113.327" y1="128.184" x2="137.061" y2="128.184" stroke="#FF7A00" stroke-width="3"/>
<line y1="-1.5" x2="23.6873" y2="-1.5" transform="matrix(-0.500989 -0.865454 0.866595 -0.499012 115.795 128.264)" stroke="#FF7A00" stroke-width="3"/>
<line y1="-1.5" x2="23.6873" y2="-1.5" transform="matrix(-0.500989 -0.865454 0.866595 -0.499012 148.928 109.185)" stroke="#FF7A00" stroke-width="3"/>
<line y1="-1.5" x2="23.6873" y2="-1.5" transform="matrix(0.500989 -0.865454 0.866595 0.499012 103.928 110.595)" stroke="#FF7A00" stroke-width="3"/>
<line y1="-1.5" x2="23.6873" y2="-1.5" transform="matrix(-0.500989 0.865454 -0.866595 -0.499012 146.46 107.764)" stroke="#FF7A00" stroke-width="3"/>
<line x1="73.3259" y1="113.014" x2="97.06" y2="113.014" stroke="#FF7A00" stroke-width="3"/>
<line x1="73.3269" y1="151.184" x2="97.061" y2="151.184" stroke="#FF7A00" stroke-width="3"/>
<line y1="-1.5" x2="23.6873" y2="-1.5" transform="matrix(-0.500989 -0.865454 0.866595 -0.499012 75.7952 151.264)" stroke="#FF7A00" stroke-width="3"/>
<line y1="-1.5" x2="23.6873" y2="-1.5" transform="matrix(-0.500989 -0.865454 0.866595 -0.499012 108.928 132.185)" stroke="#FF7A00" stroke-width="3"/>
<line y1="-1.5" x2="23.6873" y2="-1.5" transform="matrix(0.500989 -0.865454 0.866595 0.499012 63.9281 133.595)" stroke="#FF7A00" stroke-width="3"/>
<line y1="-1.5" x2="23.6873" y2="-1.5" transform="matrix(-0.500989 0.865454 -0.866595 -0.499012 106.46 130.764)" stroke="#FF7A00" stroke-width="3"/>
<line x1="153.326" y1="112.014" x2="177.06" y2="112.014" stroke="#FF7A00" stroke-width="3"/>
<line x1="153.327" y1="150.184" x2="177.061" y2="150.184" stroke="#FF7A00" stroke-width="3"/>
<line y1="-1.5" x2="23.6873" y2="-1.5" transform="matrix(-0.500989 -0.865454 0.866595 -0.499012 155.795 150.264)" stroke="#FF7A00" stroke-width="3"/>
<line y1="-1.5" x2="23.6873" y2="-1.5" transform="matrix(-0.500989 -0.865454 0.866595 -0.499012 188.928 131.185)" stroke="#FF7A00" stroke-width="3"/>
<line y1="-1.5" x2="23.6873" y2="-1.5" transform="matrix(0.500989 -0.865454 0.866595 0.499012 143.928 132.595)" stroke="#FF7A00" stroke-width="3"/>
<line y1="-1.5" x2="23.6873" y2="-1.5" transform="matrix(-0.500989 0.865454 -0.866595 -0.499012 186.46 129.764)" stroke="#FF7A00" stroke-width="3"/>
<line x1="113.326" y1="45.0137" x2="137.06" y2="45.0137" stroke="#FF7A00" stroke-width="3"/>
<line x1="113.327" y1="83.1842" x2="137.061" y2="83.1842" stroke="#FF7A00" stroke-width="3"/>
<line y1="-1.5" x2="23.6873" y2="-1.5" transform="matrix(-0.500989 -0.865454 0.866595 -0.499012 115.795 83.2639)" stroke="#FF7A00" stroke-width="3"/>
<line y1="-1.5" x2="23.6873" y2="-1.5" transform="matrix(-0.500989 -0.865454 0.866595 -0.499012 148.928 64.1845)" stroke="#FF7A00" stroke-width="3"/>
<line y1="-1.5" x2="23.6873" y2="-1.5" transform="matrix(0.500989 -0.865454 0.866595 0.499012 103.928 65.5953)" stroke="#FF7A00" stroke-width="3"/>
<line y1="-1.5" x2="23.6873" y2="-1.5" transform="matrix(-0.500989 0.865454 -0.866595 -0.499012 146.46 62.7642)" stroke="#FF7A00" stroke-width="3"/>
<line x1="113.326" y1="135.014" x2="137.06" y2="135.014" stroke="#FF7A00" stroke-width="3"/>
<line x1="113.327" y1="173.184" x2="137.061" y2="173.184" stroke="#FF7A00" stroke-width="3"/>
<line y1="-1.5" x2="23.6873" y2="-1.5" transform="matrix(-0.500989 -0.865454 0.866595 -0.499012 115.795 173.264)" stroke="#FF7A00" stroke-width="3"/>
<line y1="-1.5" x2="23.6873" y2="-1.5" transform="matrix(-0.500989 -0.865454 0.866595 -0.499012 148.928 154.185)" stroke="#FF7A00" stroke-width="3"/>
<line y1="-1.5" x2="23.6873" y2="-1.5" transform="matrix(0.500989 -0.865454 0.866595 0.499012 103.928 155.595)" stroke="#FF7A00" stroke-width="3"/>
<line y1="-1.5" x2="23.6873" y2="-1.5" transform="matrix(-0.500989 0.865454 -0.866595 -0.499012 146.46 152.764)" stroke="#FF7A00" stroke-width="3"/>
<line x1="153.326" y1="68.0137" x2="177.06" y2="68.0137" stroke="#FF7A00" stroke-width="3"/>
<line x1="153.327" y1="106.184" x2="177.061" y2="106.184" stroke="#FF7A00" stroke-width="3"/>
<line y1="-1.5" x2="23.6873" y2="-1.5" transform="matrix(-0.500989 -0.865454 0.866595 -0.499012 155.795 106.264)" stroke="#FF7A00" stroke-width="3"/>
<line y1="-1.5" x2="23.6873" y2="-1.5" transform="matrix(-0.500989 -0.865454 0.866595 -0.499012 188.928 87.1845)" stroke="#FF7A00" stroke-width="3"/>
<line y1="-1.5" x2="23.6873" y2="-1.5" transform="matrix(0.500989 -0.865454 0.866595 0.499012 143.928 88.5953)" stroke="#FF7A00" stroke-width="3"/>
<line y1="-1.5" x2="23.6873" y2="-1.5" transform="matrix(-0.500989 0.865454 -0.866595 -0.499012 186.46 85.7642)" stroke="#FF7A00" stroke-width="3"/>
<line x1="73.3259" y1="68.0137" x2="97.06" y2="68.0137" stroke="#FF7A00" stroke-width="3"/>
<line x1="73.3269" y1="106.184" x2="97.061" y2="106.184" stroke="#FF7A00" stroke-width="3"/>
<line y1="-1.5" x2="23.6873" y2="-1.5" transform="matrix(-0.500989 -0.865454 0.866595 -0.499012 75.7952 106.264)" stroke="#FF7A00" stroke-width="3"/>
<line y1="-1.5" x2="23.6873" y2="-1.5" transform="matrix(-0.500989 -0.865454 0.866595 -0.499012 108.928 87.1845)" stroke="#FF7A00" stroke-width="3"/>
<line y1="-1.5" x2="23.6873" y2="-1.5" transform="matrix(0.500989 -0.865454 0.866595 0.499012 63.9281 88.5953)" stroke="#FF7A00" stroke-width="3"/>
<line y1="-1.5" x2="23.6873" y2="-1.5" transform="matrix(-0.500989 0.865454 -0.866595 -0.499012 106.46 85.7642)" stroke="#FF7A00" stroke-width="3"/>
</svg>
