<svg width="30" height="35" viewBox="0 0 30 35" fill="none" xmlns="http://www.w3.org/2000/svg">
<path d="M8.13609 0.891398C5.48816 2.82556 3.69822 6.23979 3.69822 10.1418C3.69822 14.0437 5.48816 17.458 8.18047 19.3921C3.63905 19.3921 0 15.2547 0 10.1418C0 7.68841 0.857193 5.33555 2.38301 3.60077C3.90882 1.86599 5.97827 0.891398 8.13609 0.891398ZM25.2515 3.41422L27.3669 5.81932L4.33432 32.0062L2.21893 29.6012L25.2515 3.41422ZM16.1095 7.5012L13.9201 5.93705L11.7899 7.61893L12.4112 4.75973L10.355 2.97693L12.9438 2.77511L13.8018 0L14.7929 2.74147L17.3521 2.79193L15.355 4.69246L16.1095 7.5012ZM11.2278 13.5728L9.51183 12.345L7.85503 13.6569L8.35799 11.4368L6.74556 10.0408L8.7574 9.88948L9.42308 7.71985L10.1775 9.85584L12.1893 9.9063L10.6361 11.3695L11.2278 13.5728ZM25.1479 20.2331C25.1479 22.6864 24.2907 25.0393 22.7649 26.7741C21.2391 28.5088 19.1697 29.4834 17.0118 29.4834C15.2071 29.4834 13.5355 28.8107 12.1893 27.6838L23.5651 14.7501C24.5562 16.2806 25.1479 18.1812 25.1479 20.2331ZM18.6391 31.2999L22.7367 29.3657L22.3817 35L18.6391 31.2999ZM25.0444 26.7588L26.7456 22.1L30 26.3719L25.0444 26.7588ZM26.7456 18.4166L25.0592 13.741L30 14.1446L26.7456 18.4166ZM11.287 29.3657L15.3846 31.2999L11.642 34.9832L11.287 29.3657Z" fill="#1E90FF"/>
</svg>
