<svg width="24" height="24" viewBox="0 0 24 24" fill="none" xmlns="http://www.w3.org/2000/svg">
<path d="M2.23666 21.6413C3.72549 23.214 5.68049 24.0002 7.63614 24C9.59143 23.9998 11.5472 23.2136 13.0358 21.6413L22.4051 11.7446C24.5317 9.49816 24.5316 5.8431 22.405 3.59676C21.3749 2.50854 20.0052 1.90927 18.5483 1.90927C17.0914 1.90927 15.7217 2.50854 14.6914 3.59676L6.09335 12.6787C4.81739 14.0265 4.81739 16.2195 6.09335 17.5675C7.36946 18.9153 9.44569 18.9152 10.7217 17.5673L16.3833 11.5869C16.8093 11.1369 16.8093 10.4074 16.3833 9.95738C15.9574 9.50738 15.2666 9.50738 14.8406 9.95738L9.17894 15.9378C8.75364 16.3871 8.06151 16.3871 7.63607 15.9378C7.21077 15.4885 7.21077 14.7574 7.63607 14.3082L16.2342 5.22632C16.8523 4.57344 17.6741 4.21385 18.5483 4.21385C19.4224 4.21385 20.2441 4.57344 20.8622 5.22632C22.1382 6.57419 22.1383 8.76723 20.8624 10.1151L11.4931 20.0117C9.36628 22.258 5.90594 22.258 3.77938 20.0117C2.74916 18.9236 2.18176 17.4768 2.18176 15.9378C2.18176 14.3989 2.74916 12.952 3.77938 11.8638L13.1486 1.96704C13.5745 1.51703 13.5745 0.787406 13.1486 0.337476C12.7226 -0.112454 12.0319 -0.11253 11.6058 0.337476L2.23666 10.2342C0.794377 11.7577 0 13.7833 0 15.9378C0 18.0924 0.794377 20.1179 2.23666 21.6413Z" fill="black"/>
</svg>
