<svg width="24" height="17" viewBox="0 0 24 17" fill="none" xmlns="http://www.w3.org/2000/svg">
<path d="M22.5 7.0826H5.12124L10.0607 2.41786C10.1999 2.28634 10.3104 2.1302 10.3858 1.95836C10.4612 1.78652 10.4999 1.60235 10.4999 1.41635C10.4999 1.23035 10.4612 1.04617 10.3858 0.874335C10.3104 0.702496 10.1999 0.546359 10.0607 0.414839C9.92141 0.283319 9.75608 0.178991 9.57412 0.107813C9.39216 0.0366349 9.19714 -1.38579e-09 9.00019 0C8.80324 1.38579e-09 8.60822 0.0366349 8.42626 0.107813C8.2443 0.178991 8.07897 0.283319 7.9397 0.414839L0.439796 7.49765C0.300379 7.62909 0.189774 7.7852 0.114309 7.95705C0.0388436 8.1289 0 8.31312 0 8.49916C0 8.6852 0.0388436 8.86942 0.114309 9.04127C0.189774 9.21312 0.300379 9.36923 0.439796 9.50067L7.9397 16.5835C8.07868 16.7155 8.24392 16.8202 8.42592 16.8917C8.60792 16.9632 8.80308 17 9.00019 17C9.1973 17 9.39246 16.9632 9.57446 16.8917C9.75646 16.8202 9.9217 16.7155 10.0607 16.5835C10.2001 16.452 10.3107 16.2959 10.3862 16.1241C10.4616 15.9522 10.5005 15.768 10.5005 15.582C10.5005 15.3959 10.4616 15.2117 10.3862 15.0399C10.3107 14.868 10.2001 14.7119 10.0607 14.5805L5.12124 9.91572H22.5C22.8978 9.91572 23.2794 9.76648 23.5607 9.50082C23.842 9.23516 24 8.87485 24 8.49916C24 8.12346 23.842 7.76316 23.5607 7.4975C23.2794 7.23184 22.8978 7.0826 22.5 7.0826Z" fill="#5C5F62"/>
</svg>
