<svg width="24" height="22" viewBox="0 0 24 22" fill="none" xmlns="http://www.w3.org/2000/svg">
<path d="M0.456032 21.9961C0.437232 21.9988 0.418432 22 0.400032 22C0.250032 22 0.110432 21.9186 0.0420322 21.7862C-0.0347677 21.638 -0.00436774 21.4585 0.117232 21.3412L0.456032 21.9961ZM0.456032 21.9961C0.618031 21.9741 4.38123 21.4512 7.10282 19.9359L0.456032 21.9961ZM2.57929 16.1207L2.60342 15.8631L2.44925 15.6554C1.28317 14.0843 0.675032 12.2785 0.675032 10.4211C0.675032 5.13387 5.66346 0.675 12 0.675C18.3366 0.675 23.325 5.13387 23.325 10.4211C23.325 15.7082 18.3366 20.1671 12 20.1671C10.3766 20.1671 8.81337 19.8773 7.34765 19.3068L7.05182 19.1917L6.77447 19.3461C4.84376 20.4211 2.33444 20.98 1.10486 21.2055C1.42721 20.7342 1.69273 20.1647 1.90791 19.5293C2.232 18.5724 2.45762 17.4192 2.57929 16.1207ZM12.4 6.27816H6.40002C5.82936 6.27816 5.32502 6.73076 5.32502 7.33912C5.32502 7.94749 5.82936 8.40009 6.40002 8.40009H12.4C12.9707 8.40009 13.475 7.94749 13.475 7.33912C13.475 6.73076 12.9707 6.27816 12.4 6.27816ZM6.40002 14.5755H17.6C18.1707 14.5755 18.675 14.1229 18.675 13.5146C18.675 12.9062 18.1707 12.4536 17.6 12.4536H6.40002C5.82936 12.4536 5.32502 12.9062 5.32502 13.5146C5.32502 14.1229 5.82936 14.5755 6.40002 14.5755ZM6.40002 11.4878H17.6C18.1707 11.4878 18.675 11.0352 18.675 10.4268C18.675 9.81848 18.1707 9.36588 17.6 9.36588H6.40002C5.82936 9.36588 5.32502 9.81848 5.32502 10.4268C5.32502 11.0352 5.82936 11.4878 6.40002 11.4878Z" stroke="white" stroke-width="1.35"/>
</svg>
