<svg width="26" height="26" viewBox="0 0 26 26" fill="none" xmlns="http://www.w3.org/2000/svg">
<path d="M13 25C6.37258 25 1 19.6274 1 13C1 6.37258 6.37258 1 13 1C19.6274 1 25 6.37258 25 13C25 19.6274 19.6274 25 13 25Z" stroke="black" stroke-width="1.5" stroke-linecap="round" stroke-linejoin="round"/>
<path d="M18.4 16C18.4 16 16.6 18.4 13 18.4C9.4 18.4 7.6 16 7.6 16" stroke="black" stroke-width="1.5" stroke-linecap="round" stroke-linejoin="round"/>
<path d="M17.2 9.40001C16.8687 9.40001 16.6 9.13138 16.6 8.80001C16.6 8.46864 16.8687 8.20001 17.2 8.20001C17.5313 8.20001 17.8 8.46864 17.8 8.80001C17.8 9.13138 17.5313 9.40001 17.2 9.40001Z" fill="black" stroke="black" stroke-width="1.5" stroke-linecap="round" stroke-linejoin="round"/>
<path d="M8.8 9.40001C8.46863 9.40001 8.2 9.13138 8.2 8.80001C8.2 8.46864 8.46863 8.20001 8.8 8.20001C9.13137 8.20001 9.4 8.46864 9.4 8.80001C9.4 9.13138 9.13137 9.40001 8.8 9.40001Z" fill="black" stroke="black" stroke-width="1.5" stroke-linecap="round" stroke-linejoin="round"/>
</svg>
