<svg width="17" height="30" viewBox="0 0 17 30" fill="none" xmlns="http://www.w3.org/2000/svg">
<path d="M15.8542 0.627082C16.048 0.669383 16.2114 0.808277 16.1994 1.07407C16.1328 2.40292 16.0601 3.7377 15.7271 5.03031C15.7695 5.3927 15.5454 5.81544 15.1275 5.76115C12.1482 5.36859 11.0643 8.04434 10.6767 11.0582C12.0936 11.1428 13.4985 11.2515 14.8671 11.3723C15.1214 11.3964 15.2607 11.5716 15.2909 11.7648C15.3636 11.8132 15.4302 11.8857 15.4605 11.9944C15.7026 12.7796 15.7087 13.6614 15.7269 14.4829C15.7391 15.1291 15.8178 15.86 15.3817 16.3734C15.4363 16.6754 15.2727 17.0257 14.867 17.0378C13.4137 17.0558 11.9422 17.0801 10.4646 17.0922C10.4646 17.2372 10.4646 17.3821 10.4585 17.515C10.3556 21.4591 10.5251 25.3911 10.4827 29.3291C10.4766 29.6372 10.2284 29.7519 10.0043 29.7097C9.97407 29.7277 9.94381 29.752 9.90748 29.764C9.16261 29.9996 8.3209 29.9634 7.5459 29.9875C6.77685 30.0055 6.01996 30.0237 5.25686 29.8909C5.06912 29.9512 4.83897 29.8909 4.7967 29.6433C4.11247 25.7415 4.22754 21.6222 4.24564 17.672C4.24564 17.4244 4.24564 17.1768 4.24564 16.9291C3.04061 16.8505 1.84166 16.7297 0.660801 16.5606C0.479141 16.5304 0.388246 16.4096 0.376223 16.2707C-0.0597603 15.9808 0.043158 15.2198 0.0370806 14.7426C0.0188486 13.7158 -0.0960925 12.526 0.200508 11.5354C0.230763 11.4327 0.303427 11.3663 0.394323 11.318C0.448754 11.2576 0.527496 11.2153 0.636491 11.2032C1.84152 11.0582 3.08289 10.9736 4.3364 10.9313C4.39691 9.7958 4.49996 8.66027 4.67555 7.54898C5.5051 2.24584 10.065 -0.973493 15.4483 0.264693C15.6725 0.318986 15.7996 0.463941 15.8542 0.627082Z" fill="#0071BC"/>
</svg>
