<svg width="34" height="34" viewBox="0 0 34 34" fill="none" xmlns="http://www.w3.org/2000/svg">
<path d="M12 25L7.99999 28V22H4C3.46956 22 2.96085 21.7892 2.58579 21.4141C2.21071 21.0391 2 20.5304 2 20V4C2 3.46956 2.21071 2.96085 2.58579 2.58579C2.96085 2.21071 3.46956 2 4 2H26C26.5304 2 27.0391 2.21071 27.4141 2.58579C27.7892 2.96085 28 3.46956 28 4V9.95312" stroke="#71717A" stroke-width="2.5" stroke-linecap="round" stroke-linejoin="round"/>
<path d="M7 7H21" stroke="#71717A" stroke-width="2.5" stroke-linecap="round" stroke-linejoin="round"/>
<path d="M7 14H12" stroke="#71717A" stroke-width="2.5" stroke-linecap="round" stroke-linejoin="round"/>
<path d="M32 26H28V32L22 26H16V14H32V26Z" stroke="#71717A" stroke-width="2.5" stroke-linecap="round" stroke-linejoin="round"/>
<path d="M27 21H21" stroke="#71717A" stroke-width="2.5" stroke-linecap="round" stroke-linejoin="round"/>
</svg>
