<svg width="18" height="43" viewBox="0 0 18 43" fill="none" xmlns="http://www.w3.org/2000/svg">
<path d="M8.96752 0.862749L8.97841 7.94455C8.97971 8.79413 9.62888 9.4912 10.4578 9.56914L10.6152 9.57639L17.6971 9.56544L17.7139 20.4606C17.7157 21.6094 16.8282 22.5519 15.7008 22.6368L15.5382 22.643L2.46398 22.6632C1.31522 22.665 0.372746 21.7774 0.287809 20.6501L0.2816 20.4875L0.254719 3.05518C0.252873 1.90648 1.14038 0.964001 2.26775 0.879064L2.43037 0.872862L8.96752 0.862749ZM11.1465 0.906624C11.4978 0.980387 11.8268 1.14016 12.1033 1.37332L12.237 1.49597L17.0537 6.2979C17.3118 6.55509 17.4988 6.87031 17.602 7.213L17.6464 7.38645L11.1566 7.39648L11.1465 0.906624Z" fill="#202124"/>
<path d="M3.787 33.9605C3.24007 33.9614 2.81772 34.1111 2.53225 34.4223C2.25928 34.721 2.12317 35.1314 2.12404 35.6783L2.12514 36.4116L0.509299 36.4141L0.510594 37.2469L2.12644 37.2444L2.1351 42.8378L3.12948 42.8362L3.12081 37.2429L6.05421 37.2383L6.06287 42.8317L7.04481 42.8302L7.03486 36.404L3.11952 36.4101L3.11846 35.7017C3.11799 35.3909 3.17971 35.1671 3.30388 35.0301C3.42793 34.8808 3.63914 34.8183 3.91257 34.8179L5.01878 34.8162L5.0175 33.9586L3.787 33.9605ZM8.97479 33.7785L8.98875 42.8272L9.97069 42.8257L9.95673 33.777L8.97479 33.7785ZM14.3524 36.2188C13.4202 36.2202 12.6875 36.5569 12.1416 37.229C11.5956 37.8637 11.3358 38.6596 11.3373 39.6043C11.3389 40.6484 11.6136 41.4683 12.1864 42.0889C12.7341 42.6847 13.4805 42.9943 14.4002 42.9929C15.233 42.9916 15.9163 42.7419 16.45 42.2688C16.8844 41.8703 17.1696 41.3728 17.3177 40.751L16.3233 40.7525C16.1625 41.2003 15.9517 41.5362 15.6785 41.7603C15.3558 42.0219 14.921 42.1593 14.399 42.1601C13.7899 42.161 13.3049 41.9629 12.9562 41.5656C12.6075 41.1685 12.4202 40.6094 12.3695 39.8886L17.4407 39.8808C17.4141 38.7622 17.1641 37.88 16.6909 37.2593C16.1677 36.564 15.3841 36.2171 14.3524 36.2188ZM14.3786 37.0515C15.5967 37.0496 16.2814 37.7322 16.4079 39.1117L12.3931 39.118C12.4542 38.4839 12.6524 37.9864 12.9998 37.613C13.3472 37.2396 13.8069 37.0524 14.3786 37.0515Z" fill="#202124"/>
</svg>
