<svg width="24" height="22" viewBox="0 0 24 22" fill="none" xmlns="http://www.w3.org/2000/svg">
<path d="M20.1 0.599487C22.2539 0.599487 24 2.34558 24 4.49949V17.1026C24 19.2565 22.2539 21.0026 20.1 21.0026H3.9C1.74609 21.0026 0 19.2565 0 17.1026V4.49949C0 2.34558 1.74609 0.599487 3.9 0.599487H20.1ZM20.1 2.39949H3.9C2.7402 2.39949 1.8 3.33969 1.8 4.49949V17.1026C1.8 18.2624 2.7402 19.2026 3.9 19.2026H20.1C21.2598 19.2026 22.2 18.2624 22.2 17.1026V4.49949C22.2 3.33969 21.2598 2.39949 20.1 2.39949ZM7.21752 7.04516C7.9338 7.04516 8.44024 7.14275 9.02013 7.42123C9.39352 7.60054 9.55085 8.04859 9.37154 8.42198C9.19223 8.79537 8.74418 8.95271 8.37079 8.7734C8.01099 8.60062 7.72322 8.54516 7.21752 8.54516C6.17747 8.54516 5.41324 9.50079 5.41324 10.792C5.41324 12.0844 6.17848 13.0432 7.21752 13.0432C7.73187 13.0432 8.16729 12.8273 8.39381 12.4422L8.4012 12.4243V11.5435L7.95026 11.5443C7.5737 11.5443 7.26196 11.2668 7.20839 10.9051L7.20026 10.7943C7.20026 10.4177 7.47777 10.106 7.83943 10.0524L7.95026 10.0443H9.15219C9.52874 10.0443 9.84049 10.3218 9.89405 10.6834L9.90219 10.7943L9.90058 12.6515L9.89296 12.7179L9.86756 12.8257L9.84296 12.8919C9.39128 13.96 8.35388 14.5432 7.21752 14.5432C5.26629 14.5432 3.91324 12.8479 3.91324 10.792C3.91324 8.73682 5.26607 7.04516 7.21752 7.04516ZM12.7547 7.19156C13.1313 7.19156 13.443 7.46907 13.4966 7.83073L13.5047 7.94156V13.6561C13.5047 14.0703 13.1689 14.4061 12.7547 14.4061C12.3782 14.4061 12.0664 14.1286 12.0129 13.7669L12.0047 13.6561V7.94156C12.0047 7.52734 12.3405 7.19156 12.7547 7.19156ZM16.3497 7.19156L18.7466 7.19984C19.1608 7.20127 19.4954 7.53821 19.494 7.95242C19.4927 8.32898 19.2141 8.63976 18.8523 8.69208L18.7414 8.69983L17.0964 8.69349V10.7983L18.444 10.7993C18.8206 10.7993 19.1323 11.0768 19.1859 11.4385L19.194 11.5493C19.194 11.9259 18.9165 12.2376 18.5548 12.2912L18.444 12.2993L17.0964 12.2983L17.0971 13.6368C17.0971 14.0134 16.8196 14.3251 16.4579 14.3787L16.3471 14.3868C15.9706 14.3868 15.6588 14.1093 15.6053 13.7476L15.5971 13.6368V7.93897C15.5984 7.56241 15.877 7.25163 16.2389 7.19931L16.3497 7.19156Z" fill="#000"/>
</svg>
