<svg width="26" height="30" viewBox="0 0 26 30" fill="none" xmlns="http://www.w3.org/2000/svg">
<path d="M17.9304 1.69532C15.2227 1.07014 12.4068 1.07014 9.69916 1.69535C8.13529 0.741336 6.94031 0.303545 6.07179 0.119097C5.59961 0.0188037 5.22535 -0.00625316 4.94385 0.00123307C4.80336 0.00495418 4.68709 0.0167559 4.59449 0.0309357C4.54823 0.0380036 4.50804 0.0456439 4.47383 0.0530861C4.45673 0.0568072 4.44113 0.0604844 4.42706 0.0640294L4.40708 0.0692036L4.39795 0.0716917L4.39359 0.0729028L4.38938 0.0740918C4.38938 0.0740698 4.38936 0.0740918 4.38938 0.0740918C4.38843 0.0745101 4.3931 0.0870165 4.6937 1.13163L4.38938 0.0740918C4.07471 0.163508 3.81594 0.386664 3.68251 0.683648C3.30995 1.5127 3.10648 2.40696 3.08384 3.31466C3.067 3.98922 3.15028 4.66126 3.32993 5.30935C2.85782 5.87769 2.47314 6.51411 2.18969 7.19795C1.81767 8.09555 1.62736 9.05725 1.62966 10.028C1.62995 13.4465 2.64473 15.7449 4.37409 17.2218C5.58574 18.2566 7.0587 18.8071 8.53357 19.1225C8.29002 19.7949 8.22681 20.5063 8.27611 21.2314V22.5486C7.37363 22.7372 6.75046 22.6776 6.30619 22.5318C5.74793 22.3486 5.31995 21.9805 4.9117 21.4514C4.70493 21.1836 4.51444 20.8895 4.31441 20.5676L4.18744 20.3621C4.03078 20.1078 3.86172 19.8337 3.6911 19.5836C3.26837 18.964 2.64469 18.1897 1.63403 17.926L0.562599 17.6464L0 19.776L1.07143 20.0556C1.24745 20.1017 1.47914 20.2648 1.85744 20.8192C1.99644 21.0229 2.12903 21.238 2.28044 21.4835C2.32798 21.5606 2.3775 21.641 2.42954 21.7248C2.63749 22.0593 2.87598 22.4316 3.15387 22.7916C3.7149 23.5185 4.47875 24.251 5.61186 24.6227C6.3904 24.8781 7.27039 24.9393 8.27611 24.7858V28.8991C8.27611 29.507 8.77207 30 9.38385 30H18.2458C18.8576 30 19.3535 29.507 19.3535 28.8991V21.055C19.3535 20.3597 19.3231 19.724 19.1261 19.1309C20.5936 18.8231 22.0549 18.272 23.2586 17.2364C24.9873 15.7491 26 13.43 26 9.99083V9.98728C25.9945 8.27256 25.389 6.62085 24.2996 5.30939C24.4793 4.66128 24.5626 3.98924 24.5458 3.31466C24.5232 2.40696 24.3198 1.5127 23.9471 0.683648C23.8135 0.386576 23.5548 0.163398 23.24 0.0740036L22.9358 1.13256C23.24 0.0740036 23.2369 0.0731228 23.2357 0.0728146L23.2315 0.0716037L23.2222 0.0691375L23.2023 0.0639632C23.1883 0.0604403 23.1726 0.0567634 23.1555 0.0530423C23.1214 0.0456001 23.0813 0.0379816 23.035 0.0309137C22.9424 0.0167559 22.8261 0.00495418 22.6856 0.00123307C22.4041 -0.00625316 22.0296 0.0188036 21.5573 0.119075C20.6886 0.303545 19.4938 0.741314 17.9304 1.69532Z" fill="black"/>
</svg>
