<svg width="34" height="34" viewBox="0 0 34 34" fill="none" xmlns="http://www.w3.org/2000/svg">
<path d="M16.6 19.2897C20.3427 19.2897 23.3768 16.2556 23.3768 12.5129C23.3768 8.77022 20.3427 5.73615 16.6 5.73615C12.8573 5.73615 9.82321 8.77022 9.82321 12.5129C9.82321 16.2556 12.8573 19.2897 16.6 19.2897Z" fill="#1E90FF"/>
<mask id="mask0_41_33" style="mask-type:luminance" maskUnits="userSpaceOnUse" x="0" y="0" width="34" height="34">
<path d="M16.6 33.1379C25.7127 33.1379 33.1 25.7506 33.1 16.6379C33.1 7.52524 25.7127 0.137939 16.6 0.137939C7.48731 0.137939 0.100006 7.52524 0.100006 16.6379C0.100006 25.7506 7.48731 33.1379 16.6 33.1379Z" fill="#1e90ff"/>
</mask>
<g mask="url(#mask0_41_33)">
<path d="M16.6 43.4504C23.2718 43.4504 28.6804 38.0419 28.6804 31.3701C28.6804 24.6983 23.2718 19.2897 16.6 19.2897C9.92821 19.2897 4.51965 24.6983 4.51965 31.3701C4.51965 38.0419 9.92821 43.4504 16.6 43.4504Z" fill="#1E90FF"/>
</g>
</svg>
