<svg width="24" height="24" viewBox="0 0 24 24" fill="none" xmlns="http://www.w3.org/2000/svg">
<path d="M23.887 1.12701L15.5189 23.1893C15.1783 24.0881 14.3433 24.2671 13.6646 23.5876C13.6646 23.5876 8.39274 18.3157 7.91237 17.8353C7.43199 17.355 7.59881 16.4108 8.28356 15.7365L19.9139 4.28613C20.5986 3.61186 20.5349 3.53849 19.7715 4.1228L6.67824 14.153C5.91575 14.7373 4.73578 14.6596 4.05626 13.9801L0.4124 10.3362C-0.267112 9.65672 -0.0880634 8.82262 0.810675 8.48111L22.873 0.112978C23.7717 -0.227651 24.2277 0.228268 23.887 1.12701ZM5.03536 16.1942C4.6956 15.8544 4.41786 15.9697 4.41786 16.4501V20.4556C4.41786 20.9359 4.75499 21.1263 5.16637 20.8792L7.26342 19.6206C7.67567 19.3734 7.73419 18.893 7.39443 18.5533L5.03536 16.1942Z" fill="#1E90FF"/>
</svg>
