<svg width="28" height="28" viewBox="0 0 28 28" fill="none" xmlns="http://www.w3.org/2000/svg">
<path d="M14.0003 2.80468C13.6292 2.80468 13.2732 2.95213 13.0108 3.21459C12.7483 3.47704 12.6009 3.83301 12.6009 4.20418C12.6009 6.57214 9.73757 7.75892 8.06241 6.08372C7.93331 5.95005 7.77889 5.84343 7.60815 5.77008C7.43741 5.69674 7.25377 5.65813 7.06795 5.65652C6.88213 5.6549 6.69785 5.69031 6.52586 5.76068C6.35387 5.83105 6.19762 5.93497 6.06622 6.06637C5.93482 6.19777 5.8309 6.35403 5.76054 6.52602C5.69017 6.69802 5.65476 6.8823 5.65638 7.06813C5.65799 7.25395 5.6966 7.43759 5.76994 7.60834C5.84329 7.77908 5.9499 7.93351 6.08356 8.06261C7.75873 9.73782 6.57338 12.6012 4.20408 12.6012C3.83292 12.6012 3.47696 12.7486 3.21451 13.0111C2.95206 13.2736 2.80461 13.6295 2.80461 14.0007C2.80461 14.3719 2.95206 14.7278 3.21451 14.9903C3.47696 15.2528 3.83292 15.4002 4.20408 15.4002C6.57198 15.4002 7.75873 18.2636 6.08356 19.9388C5.82864 20.2027 5.68758 20.5563 5.69077 20.9232C5.69396 21.2901 5.84114 21.6412 6.10061 21.9006C6.36008 22.1601 6.71109 22.3073 7.07802 22.3105C7.44496 22.3137 7.79847 22.1726 8.06241 21.9177C9.73757 20.2425 12.6009 21.4279 12.6009 23.7972C12.6009 24.1684 12.7483 24.5244 13.0108 24.7868C13.2732 25.0493 13.6292 25.1967 14.0003 25.1967C14.3715 25.1967 14.7275 25.0493 14.9899 24.7868C15.2524 24.5244 15.3998 24.1684 15.3998 23.7972C15.3998 21.4293 18.2631 20.2425 19.9383 21.9177C20.0674 22.0513 20.2218 22.158 20.3926 22.2313C20.5633 22.3047 20.7469 22.3433 20.9327 22.3449C21.1186 22.3465 21.3029 22.3111 21.4748 22.2407C21.6468 22.1703 21.8031 22.0664 21.9345 21.935C22.0659 21.8036 22.1698 21.6474 22.2402 21.4754C22.3105 21.3034 22.3459 21.1191 22.3443 20.9333C22.3427 20.7474 22.3041 20.5638 22.2308 20.3931C22.1574 20.2223 22.0508 20.0679 21.9171 19.9388C20.242 18.2636 21.4273 15.4002 23.7966 15.4002C24.1678 15.4002 24.5237 15.2528 24.7862 14.9903C25.0486 14.7278 25.1961 14.3719 25.1961 14.0007C25.1961 13.6295 25.0486 13.2736 24.7862 13.0111C24.5237 12.7486 24.1678 12.6012 23.7966 12.6012C21.4287 12.6012 20.242 9.73782 21.9171 8.06261C22.1721 7.79866 22.3131 7.44515 22.3099 7.0782C22.3067 6.71126 22.1596 6.36024 21.9001 6.10076C21.6406 5.84128 21.2896 5.6941 20.9227 5.69091C20.5557 5.68772 20.2022 5.82878 19.9383 6.08372C18.2631 7.75892 15.3998 6.57354 15.3998 4.20418C15.3998 3.83301 15.2524 3.47704 14.9899 3.21459C14.7275 2.95213 14.3715 2.80468 14.0003 2.80468ZM9.81314 3.8921C9.89054 2.83445 10.3653 1.84527 11.142 1.12329C11.9187 0.401304 12.9399 0 14.0003 0C15.0608 0 16.082 0.401304 16.8587 1.12329C17.6354 1.84527 18.1102 2.83445 18.1876 3.8921C18.9906 3.2024 20.0245 2.8415 21.0823 2.88167C22.1401 2.92183 23.1436 3.3601 23.892 4.10871C24.6405 4.85732 25.0785 5.86102 25.1184 6.91883C25.1583 7.97665 24.7972 9.0105 24.1073 9.81339C25.1649 9.89061 26.1542 10.3652 26.8763 11.1418C27.5984 11.9185 27.9998 12.9396 28 14C28.0002 15.0605 27.5991 16.0818 26.8772 16.8586C26.1554 17.6355 25.1663 18.1104 24.1087 18.188C24.7984 18.9911 25.1593 20.025 25.1191 21.0828C25.0789 22.1406 24.6407 23.1442 23.8921 23.8926C23.1435 24.6411 22.1398 25.0791 21.082 25.119C20.0242 25.1589 18.9904 24.7978 18.1876 24.1079C18.1102 25.1655 17.6354 26.1547 16.8587 26.8767C16.082 27.5987 15.0608 28 14.0003 28C12.9399 28 11.9187 27.5987 11.142 26.8767C10.3653 26.1547 9.89054 25.1655 9.81314 24.1079C9.01028 24.7978 7.97645 25.1589 6.91866 25.119C5.86087 25.0791 4.8572 24.6411 4.1086 23.8926C3.36001 23.1442 2.92176 22.1406 2.88159 21.0828C2.84143 20.025 3.20232 18.9911 3.892 18.188C2.83438 18.1106 1.84523 17.6359 1.12326 16.8591C0.401294 16.0824 0 15.0612 0 14.0007C0 12.9402 0.401294 11.919 1.12326 11.1423C1.84523 10.3655 2.83438 9.89078 3.892 9.81339C3.20021 9.01065 2.83757 7.97599 2.87681 6.917C2.91606 5.85802 3.35431 4.85305 4.10362 4.10372C4.85293 3.35439 5.85787 2.91614 6.91683 2.87689C7.97579 2.83764 9.01042 3.20029 9.81314 3.8921Z" fill="#1E90FF"/>
<path d="M14.0003 11.2017C13.258 11.2017 12.5461 11.4966 12.0212 12.0215C11.4963 12.5464 11.2014 13.2583 11.2014 14.0007C11.2014 14.743 11.4963 15.4549 12.0212 15.9799C12.5461 16.5048 13.258 16.7997 14.0003 16.7997C14.7427 16.7997 15.4546 16.5048 15.9795 15.9799C16.5044 15.4549 16.7993 14.743 16.7993 14.0007C16.7993 13.2583 16.5044 12.5464 15.9795 12.0215C15.4546 11.4966 14.7427 11.2017 14.0003 11.2017ZM10.0426 10.0429C10.559 9.50821 11.1767 9.08174 11.8597 8.78835C12.5426 8.49497 13.2772 8.34054 14.0205 8.33408C14.7638 8.32762 15.5009 8.46926 16.1888 8.75073C16.8768 9.03221 17.5018 9.44788 18.0274 9.97349C18.553 10.4991 18.9687 11.1241 19.2501 11.8121C19.5316 12.5001 19.6732 13.2372 19.6668 13.9805C19.6603 14.7238 19.5059 15.4584 19.2125 16.1414C18.9191 16.8244 18.4927 17.4421 17.958 17.9585C16.9023 18.9782 15.4882 19.5424 14.0205 19.5297C12.5527 19.5169 11.1487 18.9282 10.1108 17.8903C9.07294 16.8524 8.48422 15.4483 8.47146 13.9805C8.45871 12.5127 9.02294 11.0987 10.0426 10.0429Z" fill="#1E90FF"/>
</svg>
