<svg width="24" height="24" viewBox="0 0 24 24" fill="none" xmlns="http://www.w3.org/2000/svg">
<path d="M22.6667 12.6667V18C22.6667 20.5773 20.5773 22.6667 18 22.6667H6C3.42267 22.6667 1.33333 20.5773 1.33333 18V6C1.33333 3.42267 3.42267 1.33333 6 1.33333H12.6667C13.7712 1.33333 14.6667 2.22876 14.6667 3.33333V6C14.6667 8.57733 16.756 10.6667 19.3333 10.6667H20.6667C21.7712 10.6667 22.6667 11.5621 22.6667 12.6667ZM22.5688 9.929C22.0294 9.55349 21.3737 9.33333 20.6667 9.33333H19.3333C17.4924 9.33333 16 7.84095 16 6V3.33333C16 2.77028 15.8604 2.23984 15.6139 1.77473C19.2653 2.89928 22.0249 6.0586 22.5688 9.929ZM6 24H18C21.3137 24 24 21.3137 24 18V11.3333C24 5.07411 18.9259 -7.15256e-07 12.6667 -7.15256e-07H6C2.68629 -7.15256e-07 0 2.68629 0 6V18C0 21.3137 2.68629 24 6 24Z" fill="black"/>
</svg>
