<svg width="30" height="25" viewBox="0 0 30 25" fill="none" xmlns="http://www.w3.org/2000/svg">
<path d="M29.9242 2.88943C29.0744 4.12863 28.0569 5.17749 26.8887 6.034L26.8524 6.05931C26.8645 6.23614 26.8706 6.50173 26.8706 6.85608C26.8665 8.61363 26.6038 10.3084 26.1178 11.905L26.1501 11.7815C25.6105 13.5765 24.8648 15.1427 23.921 16.5641L23.9614 16.4983C22.962 18.0261 21.8071 19.3412 20.4904 20.4741L20.4662 20.4943C19.0798 21.6616 17.457 22.6032 15.6866 23.2319L15.5775 23.2653C13.794 23.9214 11.7346 24.3 9.58739 24.3C9.54192 24.3 9.49645 24.3 9.45199 24.3H9.45906C9.42066 24.3 9.3762 24.3 9.33073 24.3C5.88501 24.3 2.67776 23.2724 0 21.5057L0.0636599 21.5452C0.487049 21.5938 0.97713 21.6211 1.47428 21.6211H1.54502H1.54097C1.57836 21.6211 1.62383 21.6222 1.66829 21.6222C4.5047 21.6222 7.11071 20.6351 9.16299 18.9838L9.13975 19.002C6.4731 18.9514 4.22783 17.203 3.43056 14.7934L3.41844 14.7499C3.76402 14.8076 4.16417 14.842 4.57139 14.8451H4.57442C5.14736 14.8451 5.70211 14.7691 6.22857 14.6264L6.18411 14.6365C4.75732 14.349 3.54172 13.5897 2.67776 12.5307L2.66968 12.5195C1.80269 11.496 1.27623 10.1596 1.27623 8.69969C1.27623 8.67134 1.27623 8.64299 1.27724 8.61464V8.61869V8.54276C2.0735 9.00037 3.02132 9.28385 4.03281 9.3203H4.04392C3.21331 8.76043 2.54135 8.02542 2.07046 7.16487L2.0543 7.13348C1.58948 6.28811 1.31564 5.28076 1.31564 4.20861C1.31564 3.06863 1.62484 2.00155 2.16444 1.08632L2.14928 1.11467C3.66499 2.9765 5.52124 4.49715 7.63111 5.59663L7.7271 5.64219C9.77029 6.72244 12.1752 7.40683 14.7267 7.52934L14.7651 7.53035C14.6711 7.1102 14.6165 6.62727 14.6145 6.13119C14.6185 2.74466 17.36 0 20.74 0C22.4982 0 24.0837 0.742101 25.2013 1.93169L25.2043 1.93473C26.6675 1.6472 27.9679 1.13289 29.1381 0.424202L29.0845 0.454575C28.6247 1.90334 27.6698 3.08281 26.4219 3.81883L26.3936 3.83402C27.7012 3.68418 28.8945 3.34907 30 2.85501L29.9222 2.8864L29.9242 2.88943Z" fill="#1E90FF"/>
</svg>
